%
M48
M72
T01C0.0236
T02C0.0276
T03C0.0315
T04C0.0320
T05C0.0400
T06C0.0748
%
T01
X7931Y7181
X6181Y8181
X6681Y9181
X9931Y10181
X11181Y10181
X14181Y7181
X15181Y6681
X11306Y7056
X9931Y3056
X10431Y1431
X2181Y9181
X1681Y11681
X10431Y14431
X13181Y14181
X13681Y17181
X18556Y17806
T02
X7681Y17181
X7681Y16181
X14806Y10306
X15806Y10306
T03
X2101Y17201
X2431Y16581
X3101Y16581
X2791Y17201
X1731Y16581
T04
X7181Y18681
X8181Y18681
X9181Y17181
X9181Y16181
X9181Y14681
X9181Y13681
X9181Y12681
X9181Y11681
X9181Y10681
X9181Y9681
X9181Y8681
X9181Y7681
X9181Y6681
X9181Y5681
X9181Y4681
X9181Y3681
X9181Y2681
X9181Y1681
X7431Y2681
X6431Y2681
X12181Y2681
X12181Y1681
X12181Y3681
X12181Y4681
X12181Y5681
X12181Y6681
X12181Y7681
X12181Y8681
X12181Y9681
X12181Y10681
X12181Y11681
X12181Y12681
X12181Y13681
X12181Y14681
X10931Y16181
X10931Y17681
X10931Y18681
X15931Y16181
X17056Y16556
X18556Y16556
X18556Y11556
X17056Y11556
X16681Y9181
X14181Y9181
X14181Y4181
X14181Y1681
X14181Y681
X16681Y681
X16681Y1681
X16681Y4181
T05
X681Y1181
X681Y2181
X681Y3181
X681Y4181
X681Y6181
X681Y7181
X681Y8181
X681Y9181
X681Y11181
X681Y12181
X681Y13181
X681Y14181
X5681Y16181
X5681Y17181
X5681Y18181
X12681Y18181
X13681Y18181
X14681Y18181
X16181Y18181
X17181Y18181
X18181Y18181
X15181Y14681
X19181Y9181
X19181Y8181
X19181Y7181
X19181Y6181
X19181Y4181
X19181Y3181
X19181Y2181
X19181Y1181
X15556Y2931
X6931Y1181
X5931Y1181
X4931Y1181
X3931Y1181
X2931Y1181
X5681Y5181
X5681Y6181
X5681Y7181
T06
X994Y18681
X3868Y18681
M30
