G75*
G70*
%OFA0B0*%
%FSLAX24Y24*%
%IPPOS*%
%LPD*%
%AMOC8*
5,1,8,0,0,1.08239X$1,22.5*
%
%ADD10C,0.0000*%
%ADD11C,0.0520*%
%ADD12R,0.0650X0.0650*%
%ADD13C,0.0650*%
%ADD14OC8,0.0520*%
%ADD15R,0.0740X0.0740*%
%ADD16C,0.0740*%
%ADD17C,0.0515*%
%ADD18C,0.1122*%
%ADD19C,0.0600*%
%ADD20C,0.0160*%
%ADD21C,0.0356*%
%ADD22R,0.0356X0.0356*%
D10*
X000181Y000181D02*
X000181Y019681D01*
X019681Y019681D01*
X019681Y000181D01*
X000181Y000181D01*
D11*
X008921Y001681D02*
X009441Y001681D01*
X009441Y002681D02*
X008921Y002681D01*
X008921Y003681D02*
X009441Y003681D01*
X009441Y004681D02*
X008921Y004681D01*
X008921Y005681D02*
X009441Y005681D01*
X009441Y006681D02*
X008921Y006681D01*
X008921Y007681D02*
X009441Y007681D01*
X009441Y008681D02*
X008921Y008681D01*
X008921Y009681D02*
X009441Y009681D01*
X009441Y010681D02*
X008921Y010681D01*
X008921Y011681D02*
X009441Y011681D01*
X009441Y012681D02*
X008921Y012681D01*
X008921Y013681D02*
X009441Y013681D01*
X009441Y014681D02*
X008921Y014681D01*
X011921Y014681D02*
X012441Y014681D01*
X012441Y013681D02*
X011921Y013681D01*
X011921Y012681D02*
X012441Y012681D01*
X012441Y011681D02*
X011921Y011681D01*
X011921Y010681D02*
X012441Y010681D01*
X012441Y009681D02*
X011921Y009681D01*
X011921Y008681D02*
X012441Y008681D01*
X012441Y007681D02*
X011921Y007681D01*
X011921Y006681D02*
X012441Y006681D01*
X012441Y005681D02*
X011921Y005681D01*
X011921Y004681D02*
X012441Y004681D01*
X012441Y003681D02*
X011921Y003681D01*
X011921Y002681D02*
X012441Y002681D01*
X012441Y001681D02*
X011921Y001681D01*
D12*
X014806Y010306D03*
X007681Y017181D03*
D13*
X007681Y016181D03*
X015806Y010306D03*
D14*
X016681Y009181D03*
X017056Y011556D03*
X018556Y011556D03*
X014931Y013806D03*
X014931Y014806D03*
X015931Y016181D03*
X017056Y016556D03*
X018556Y016556D03*
X014181Y009181D03*
X014181Y004181D03*
X014181Y001681D03*
X014181Y000681D03*
X016681Y000681D03*
X016681Y001681D03*
X016681Y004181D03*
X007431Y002681D03*
X006431Y002681D03*
X009181Y016181D03*
X009181Y017181D03*
X008181Y018681D03*
X007181Y018681D03*
X010931Y018681D03*
X010931Y017681D03*
X010931Y016181D03*
D15*
X012681Y018181D03*
X018181Y018181D03*
X019181Y009181D03*
X019181Y004181D03*
X006931Y001181D03*
X005681Y007181D03*
X000681Y009181D03*
X000681Y014181D03*
X000681Y004181D03*
D16*
X000681Y003181D03*
X000681Y002181D03*
X000681Y001181D03*
X002931Y001181D03*
X003931Y001181D03*
X004931Y001181D03*
X005931Y001181D03*
X005681Y005181D03*
X005681Y006181D03*
X000681Y006181D03*
X000681Y007181D03*
X000681Y008181D03*
X000681Y011181D03*
X000681Y012181D03*
X000681Y013181D03*
X013681Y018181D03*
X014681Y018181D03*
X016181Y018181D03*
X017181Y018181D03*
X019181Y008181D03*
X019181Y007181D03*
X019181Y006181D03*
X019181Y003181D03*
X019181Y002181D03*
X019181Y001181D03*
X015556Y002931D03*
D17*
X003101Y016581D03*
X002431Y016581D03*
X002101Y017201D03*
X001731Y016581D03*
X002791Y017201D03*
D18*
X003868Y018681D03*
X000994Y018681D03*
D19*
X005381Y018181D02*
X005981Y018181D01*
X005981Y017181D02*
X005381Y017181D01*
X005381Y016181D02*
X005981Y016181D01*
D20*
X005681Y017181D02*
X007681Y017181D01*
X009181Y017181D01*
X011681Y014681D01*
X012181Y014681D01*
X013556Y014681D01*
X014431Y013806D01*
X014931Y013806D01*
X014931Y013681D01*
X017056Y011556D01*
X018556Y011556D01*
X018681Y009181D02*
X019181Y009181D01*
X018681Y009181D02*
X015181Y012681D01*
X012181Y012681D01*
X012181Y011681D02*
X015681Y011681D01*
X018181Y009181D01*
X018181Y008681D01*
X018681Y008181D01*
X019181Y008181D01*
X019181Y007181D02*
X014181Y007181D01*
X014681Y006181D02*
X019181Y006181D01*
X019181Y004181D02*
X018181Y004181D01*
X017681Y003681D01*
X012181Y003681D01*
X012431Y002931D02*
X015556Y002931D01*
X018931Y002931D01*
X019181Y003181D01*
X017681Y002181D02*
X013181Y002181D01*
X012681Y001681D01*
X012181Y001681D01*
X012181Y002681D02*
X012431Y002931D01*
X012181Y004681D02*
X013181Y004681D01*
X014681Y006181D01*
X015181Y006681D02*
X012181Y006681D01*
X011306Y007056D02*
X011181Y007181D01*
X007931Y007181D01*
X007181Y006681D02*
X009181Y006681D01*
X009181Y005681D02*
X007181Y005681D01*
X006681Y005181D01*
X005681Y005181D01*
X005181Y004181D02*
X008181Y004181D01*
X008681Y004681D01*
X009181Y004681D01*
X009181Y003681D02*
X003181Y003681D01*
X002681Y004181D01*
X000681Y004181D01*
X000681Y003181D02*
X002681Y003181D01*
X003931Y001931D01*
X007931Y001931D01*
X008181Y001681D01*
X009181Y001681D01*
X009181Y002681D02*
X009556Y002681D01*
X009931Y003056D01*
X009181Y002681D02*
X007431Y002681D01*
X007681Y001181D02*
X006931Y001181D01*
X007681Y001181D02*
X007931Y000931D01*
X010431Y000931D01*
X010431Y001431D01*
X007181Y006681D02*
X006681Y007181D01*
X005681Y007181D01*
X006181Y008181D02*
X009681Y008181D01*
X010181Y007681D01*
X012181Y007681D01*
X012181Y008681D02*
X011681Y009181D01*
X006681Y009181D01*
X004181Y008681D02*
X009181Y008681D01*
X009181Y009681D02*
X003681Y009681D01*
X002181Y008181D01*
X000681Y008181D01*
X000681Y007181D02*
X002681Y007181D01*
X004181Y008681D01*
X002181Y009181D02*
X003681Y010681D01*
X009181Y010681D01*
X009931Y010181D02*
X011181Y010181D01*
X011681Y010181D01*
X012181Y009681D01*
X009181Y011681D02*
X001681Y011681D01*
X001181Y011181D01*
X000681Y011181D01*
X000681Y012181D02*
X001181Y012181D01*
X001681Y012681D01*
X009181Y012681D01*
X009181Y013681D02*
X001681Y013681D01*
X001181Y013181D01*
X000681Y013181D01*
X000681Y014181D02*
X001181Y014181D01*
X001681Y014681D01*
X009181Y014681D01*
X010431Y014431D02*
X010681Y014181D01*
X013181Y014181D01*
X013681Y017181D02*
X016181Y017181D01*
X016806Y016556D01*
X017056Y016556D01*
X018556Y016556D02*
X018556Y017806D01*
X013681Y017181D02*
X012681Y018181D01*
X007181Y018681D02*
X006556Y018681D01*
X006056Y018181D01*
X005681Y018181D01*
X004681Y018181D01*
X004556Y018056D01*
X004556Y017306D01*
X003831Y016581D01*
X003101Y016581D01*
X002181Y009181D02*
X000681Y009181D01*
X000681Y006181D02*
X003181Y006181D01*
X005181Y004181D01*
X017681Y002181D02*
X018681Y001181D01*
X019181Y001181D01*
D21*
X011306Y007056D03*
X011181Y010181D03*
X009931Y010181D03*
X007931Y007181D03*
X006181Y008181D03*
X006681Y009181D03*
X002181Y009181D03*
X001681Y011681D03*
X009931Y003056D03*
X010431Y001431D03*
X013181Y014181D03*
X010431Y014431D03*
X013681Y017181D03*
D22*
X018556Y017806D03*
X014181Y007181D03*
X015181Y006681D03*
M02*
